<svg id="Capa_1" data-name="Capa 1" xmlns="http://www.w3.org/2000/svg" viewBox="0 0 512 512"><defs><style>.cls-1{fill:#505050;}</style></defs><title>dark_twitter</title><path class="cls-1" d="M173.2,456.9A277.13,277.13,0,0,1,30.95,417.16L0,398.63l36.06.61c1.17.06,3,.15,6,.15,13.73,0,57.45-2.21,102.29-27.51a110.48,110.48,0,0,1-73-70.19L65.65,284.8l15.47,4a109.71,109.71,0,0,1-42.8-81l-.85-15.63,14.34,6.26a85.32,85.32,0,0,0,8,3c-20.37-28.52-32.7-72.58-7-119.38l7.08-12.9,9,11.64a243.27,243.27,0,0,0,176.78,94.41c-.42-4.33-.72-8.32-.72-9.56,0-51.74,39.38-105.26,105.26-105.26A105.45,105.45,0,0,1,424.1,90.79c26.29-6.17,51.41-21.5,51.68-21.67l22.78-14L490,80.44a105.06,105.06,0,0,1-18.48,33.08c4.4-1.44,8.72-3.09,13.17-5L512,95.12l-11.5,24.7a105.59,105.59,0,0,1-45,48c4.32,67.53-23.45,142.88-73.41,198.21C345,407.11,279,456.21,175,456.88ZM71.81,416.47A256,256,0,0,0,173.19,437.6h1.65c97-.62,158.48-46.28,193-84.48,48.08-53.26,74.14-126.08,68-190.05l-.65-6.79,6.17-2.87a86.19,86.19,0,0,0,25.92-18.61,215,215,0,0,1-27.16,4.86l-7.4.9-5.77-14.62,6.71-5.17a86.59,86.59,0,0,0,24.23-21.09c-10.49,4.47-22.86,8.84-35.24,11.14l-5.29,1-3.62-4a86.11,86.11,0,0,0-63.52-28.07c-53.81,0-86,43.71-86,86,0,2.56,1.27,14.19,1.73,17.18l4.38,12.45-13.93-.3A262.33,262.33,0,0,1,63.53,104.72C44.24,155.38,76.63,195.85,92.1,208l22.62,17.74L86,225.22a109.28,109.28,0,0,1-26.34-3.66,90.47,90.47,0,0,0,69.12,68.53l38.06,8.18-37.47,10.54a81.85,81.85,0,0,1-22,2.76c-3.78,0-7.4-.2-10.74-.51a91,91,0,0,0,74.17,45.87l27.13,1.33L176,374.34C138.51,401.92,99.62,412.54,71.81,416.47Z"/></svg>