<svg id="Capa_1" data-name="Capa 1" xmlns="http://www.w3.org/2000/svg" viewBox="0 0 512 512"><defs><style>.cls-1{fill:#505050;}</style></defs><title>dark_facebook</title><path class="cls-1" d="M296.31,512H186.13V282.44H125.44V177h60.69v-59.2C186.13,63.46,220.13,0,316,0a508.16,508.16,0,0,1,59.65,3.3l10.17,1.32-2.45,98.66-11.21-.1s-25.21-.24-52.69-.24c-20.45,0-23.16,5-23.16,25.12v49h90.24l-5,105.43H296.33V512h0ZM208.9,489.22h64.61V259.67h86.28l2.85-59.87H273.51V128c0-23.69,5.46-47.9,45.94-47.9,16.27,0,31.73.08,41.67.16l1.38-55.46c-10.06-.9-26.79-2.05-46.52-2.05-79,0-107.09,49.09-107.09,95v82H148.2v59.87h60.69V489.22h0Z"/></svg>