<svg id="Capa_1" data-name="Capa 1" xmlns="http://www.w3.org/2000/svg" viewBox="0 0 512 512"><defs><style>.cls-1{fill:#505050;}</style></defs><title>dark_behance</title><path class="cls-1" d="M168.79,259.48H69.92V361.15h94.62c30-.7,46.49-18.35,46.49-49.71C211,270.34,183.42,259.48,168.79,259.48ZM164.3,341H90.09V279.65H168.8c3.68.05,22.06,1.8,22.06,31.78C190.86,336.93,177.32,340.68,164.3,341Zm36.15-154.77c0-33.07-20.73-41.82-31.68-41.82H69.91v88.24h93.37C188.3,232.63,200.45,217.45,200.45,186.21ZM90.09,164.56h78.7c.13,0,11.51.24,11.51,21.65,0,26.26-8.26,26.26-17,26.26H90.09Zm392.26,38c-20.26-23.06-49.7-34.76-87.47-34.76-65.74,0-97,34.9-111.58,64.16a153.93,153.93,0,0,0-13.59,42.3c-3.22-9.27-8.09-18.64-15.46-26.44a56.9,56.9,0,0,0-13.61-10.66c13.31-10.2,24.55-27.65,24.55-55.67,0-55.46-37.83-91.31-96.41-91.31H0V415.34H168.46l1.39,0c7.12,0,32.23-1,56.47-13.37,18.63-9.53,40.17-27.9,47.11-62.29,4.47,15.1,12.21,31.72,25.68,46.15,22.2,23.8,54.41,35.86,95.13,35.86h.09s1.71.12,4.75.12c53.3,0,110.29-24,110.28-91.28V320.46H435l.57,10.64a19,19,0,0,1-5.29,12.06c-6.25,6.61-17.86,10.09-34.16,10.12l-1.25,0c-3.22,0-14.5-.45-24.31-6.29-9.2-5.46-14.8-14.42-16.69-26.68H509.93l1.14-8.77C511.41,308.85,519.3,244.65,482.34,202.55ZM255.59,315.27c0,32.56-12.94,55.7-38.45,68.77-20.75,10.62-43,11.14-47.27,11.14H20.17V110.37H168.76c47.74,0,76.24,26.6,76.24,71.14,0,43.46-33.45,47.65-37.2,48l.75,20.14c13.17,0,23.31,3.92,31,12C257.18,280.23,255.62,314.38,255.59,315.27Zm236.07-15.08H332.91v10.08c0,31.3,14.84,46.7,27.28,54.09,13.84,8.21,28.84,9.12,34.64,9.12,1.14,0,1.94-.05,2.08-.06,21.57,0,37.69-5.55,48-16.39a39.66,39.66,0,0,0,9.4-16.41h34.35c-6.68,56.45-69.55,61-89.55,61-2.19,0-3.48-.08-4.16-.1-35.45,0-62.67-9.86-80.92-29.33-28.82-30.74-26.24-76-26.19-77.17A135.62,135.62,0,0,1,301.35,241c17.58-35.17,49-53,93.55-53,31.69,0,56,9.35,72.23,27.83C490.79,242.68,492.3,282.65,491.66,300.18Zm-95.57-87.72c-44.21,0-61,36.44-63.66,55.71l-1.6,11.48H452.57l.13-9.94c0-1,.13-25.29-16.41-42C426.32,217.59,412.8,212.47,396.09,212.47Zm-40.34,47c4.73-11.3,15.7-26.85,40.33-26.85,11.07,0,19.72,3.07,25.77,9.12,5.28,5.31,8,12.17,9.31,17.74H355.75ZM465.19,108.15h-146v57.73h146ZM445,145.7H339.36v-17.4H445Z"/></svg>