<svg id="Capa_1" data-name="Capa 1" xmlns="http://www.w3.org/2000/svg" viewBox="0 0 512 512"><defs><style>.cls-1{fill:#505050;}</style></defs><title>dark_soundcloud</title><path class="cls-1" d="M446.86,240.85a64.87,64.87,0,0,0-25.2,5.08,115,115,0,0,0-114.5-104.78,116.59,116.59,0,0,0-41.67,7.79c-4.93,1.9-6.23,3.86-6.27,7.67V363.38a7.65,7.65,0,0,0,7,7.47c.07,0,20.14,0,46.9,0H446.86a65,65,0,1,0,0-130Zm0,108.45H280.77V166.5a95.38,95.38,0,0,1,26.39-3.8,92.89,92.89,0,0,1,93,85.11l2.59,29.41L430,265.79a43.48,43.48,0,1,1,16.87,83.51Zm-341.21-140a87.62,87.62,0,0,1,25.55-15.91v177H105.64ZM163,187.27a85.4,85.4,0,0,1,18.68,2.07V370.47H156.13V187.55C158.44,187.36,160.72,187.27,163,187.27Zm69.15-21.34V370.47H206.61V190.34A116.73,116.73,0,0,1,232.16,165.93ZM80.53,246.43c.07-.17.12-.29.17-.44V370.47H57.81v-.29c-.88-.09-1.78-.17-2.65-.31v-125a61.83,61.83,0,0,1,8.73-.64A64.84,64.84,0,0,1,80.53,246.43Zm-50.31,7.32V361a62.68,62.68,0,0,1,0-107.25Z"/></svg>