<svg id="Capa_1" data-name="Capa 1" xmlns="http://www.w3.org/2000/svg" viewBox="0 0 512 512"><defs><style>.cls-1{fill:#505050;}</style></defs><title>dark_vimeo</title><path class="cls-1" d="M498.6,58.83c-16.37-20.72-44.83-25.06-65.8-25.06a166,166,0,0,0-25.22,2c-18.17,2.79-97.42,32.33-124.65,116.78l-4.72,14.67L293.56,166c5.66-.43,10.94-.68,15.83-.68,14.83,0,23.95,2.42,28.72,7.63,5.17,5.64,7,16.16,5.6,32.14-1.67,18.95-12.44,41-21.65,58.11l-.83,1.54c-7.86,14.65-22.49,41.91-36.46,41.91-4.4,0-9.32-2.89-14.64-8.57-19.24-20.56-23-57.8-26.36-90.66-1.14-11.22-2.21-21.81-3.85-31.5l-1.53-9.36c-3.3-20.33-7.05-43.38-13.42-63.37-6.69-21-22.34-47.84-44.43-54.29a55.74,55.74,0,0,0-15.66-2.14c-21.69,0-41.72,10.81-47.33,14.11C88.44,78,64,99.77,40.33,120.85,28.5,131.39,16.28,142.28,3.89,152.15L0,155.26v12.17l3.2,3.05A35.54,35.54,0,0,1,8,177c3.91,6.18,9.29,14.65,21,16.34,11.52,1.71,22.66-1.67,32.08-4.6,5.91-1.84,11.49-3.58,15.87-3.58,3.19,0,7,.63,11.38,8.07,6.39,10.85,9.86,22.71,13.53,35.27,1.79,6.12,3.6,12.28,5.75,18.41,8.57,24.39,15.25,51.16,22.54,80.38l2.66,10.8c12.17,49.57,28.82,117.47,72.81,136.12a55.33,55.33,0,0,0,21.69,4c21,0,44.41-9.44,58-17.52,49.84-29.51,85.87-72.07,111.79-106C468,258.61,504.49,152.63,509.79,124.8,514.88,96.3,511.2,74.71,498.6,58.83Zm-9.17,62.22c-4.82,25.44-41,129.3-108.9,221.26-36.65,48-69.27,79-105.8,100.61-12.27,7.28-31.7,14.63-47.47,14.63a34.8,34.8,0,0,1-13.59-2.4c-34.44-14.61-49.67-76.67-60.79-122L150,321.42c-7.2-28.83-14-56.07-22.87-81.36-2-5.78-3.72-11.59-5.4-17.35-3.87-13.22-7.86-26.9-15.58-40-7.17-12.1-17-18.24-29.2-18.24-7.54,0-14.91,2.3-22,4.53-8.13,2.54-15.42,5-22.92,3.88-2-.29-3.24-1.82-6.47-6.93-.62-1-1.26-2-1.95-3,10.47-8.66,20.67-17.75,30.59-26.6,22.9-20.42,46.59-41.53,74-57.59,9.25-5.45,23.76-11.25,36.84-11.25a35,35,0,0,1,9.85,1.3c12.57,3.68,25.11,23.72,30.52,40.71,5.9,18.53,9.51,40.78,12.7,60.4l1.54,9.46c1.52,9,2.57,19.31,3.66,30.19,3.68,36.11,7.84,77,31.84,102.7,9.38,10.05,19.4,15.15,29.76,15.15,26.37,0,43.42-31.78,54.7-52.82l.83-1.53c10.77-20,22-43.53,24-66.11,2-22.4-1.52-37.63-11-47.93-11.65-12.72-29.62-14.35-44-14.35H308c27.88-63.9,90.58-86.56,102.69-88.43a148.84,148.84,0,0,1,22.08-1.72c16.41,0,38.33,3,49.57,17.22C491.21,82.82,493.44,98.55,489.43,121.05Z"/></svg>