<svg id="Layer_1" data-name="Layer 1" xmlns="http://www.w3.org/2000/svg" viewBox="0 0 203 151"><defs><style>.cls-1{fill:#fbb03b;}</style></defs><title>Artboard 2</title><path class="cls-1" d="M202.95,15.77c0-.08,0-.16,0-.24a3.56,3.56,0,0,0,0-.76c0-.06,0-.13,0-.19a3.39,3.39,0,0,0-.34-1l-.09-.16s0,0,0,0l0,0-.07-.11a3.34,3.34,0,0,0-.75-.78c-.06,0-.14-.07-.21-.12a3.24,3.24,0,0,0-.8-.39,2.91,2.91,0,0,0-.38-.08,3.27,3.27,0,0,0-.75-.07l-.4,0c-.09,0-.17,0-.26,0L2.7,52.44a3.38,3.38,0,0,0-.9,6.3L58,88.39l9.86,54.71s0,.08,0,.13a3.18,3.18,0,0,0,0,.8,3.12,3.12,0,0,0,.07.4,3.26,3.26,0,0,0,.37.91c0,.05,0,.12.07.17l0,0c0,.06.1.11.16.18a3.45,3.45,0,0,0,.51.53s.05.06.08.08.11,0,.16.08a3.44,3.44,0,0,0,.65.33l.27.1a3.39,3.39,0,0,0,.94.15h.22a3.36,3.36,0,0,0,2.41-1.06l37.45-25,39.21,25.48a3.38,3.38,0,0,0,5-1.67l47.3-128.4a3.1,3.1,0,0,0,.11-.35c0-.05,0-.1,0-.15S202.94,15.81,202.95,15.77ZM163.8,37.34,82.71,97a3.29,3.29,0,0,0-.35.33l-.13.12-.2.24c-.06.08-.11.17-.16.25a3.46,3.46,0,0,0-.31.64s0,.08-.06.12l0,0L72.19,128.9,64.82,88ZM77.43,135.41,86.64,105,101,114.3l4.1,2.67-13.94,9.29ZM175.9,23.55,61.08,82.36,13.29,57.15ZM150.6,138.48,98.54,104.64l-7.89-5.13L192.57,24.58Z"/></svg>