<svg id="Layer_1" data-name="Layer 1" xmlns="http://www.w3.org/2000/svg" viewBox="0 0 450 135"><defs><style>.cls-1{fill:#fbb03b;}.cls-2{fill:#4d4d4d;}</style></defs><title>Artboard 1</title><path class="cls-1" d="M213.95,3.77c0-.08,0-.16,0-.24a3.56,3.56,0,0,0,0-.76c0-.06,0-.13,0-.19a3.39,3.39,0,0,0-.34-1l-.09-.16s0,0,0,0l0,0-.07-.11a3.34,3.34,0,0,0-.75-.78c-.06,0-.14-.07-.21-.12a3.24,3.24,0,0,0-.8-.39,2.91,2.91,0,0,0-.38-.08,3.27,3.27,0,0,0-.75-.07l-.4,0c-.09,0-.17,0-.26,0L13.7,40.44a3.38,3.38,0,0,0-.9,6.3L69,76.39l9.86,54.71s0,.08,0,.13a3.18,3.18,0,0,0,0,.8,3.12,3.12,0,0,0,.07.4,3.26,3.26,0,0,0,.37.91c0,.05,0,.12.07.17l0,0c0,.06.1.11.16.18a3.45,3.45,0,0,0,.51.53s.05.06.08.08.11,0,.16.08a3.44,3.44,0,0,0,.65.33l.27.1a3.39,3.39,0,0,0,.94.15h.22a3.36,3.36,0,0,0,2.41-1.06l37.45-25,39.21,25.48a3.38,3.38,0,0,0,5-1.67l47.3-128.4A3.1,3.1,0,0,0,213.9,4c0-.05,0-.1,0-.15S213.94,3.81,213.95,3.77ZM174.8,25.34,93.71,85a3.29,3.29,0,0,0-.35.33l-.13.12-.2.24c-.06.08-.11.17-.16.25a3.46,3.46,0,0,0-.31.64s0,.08-.06.12l0,0L83.19,116.9,75.82,76ZM88.43,123.41,97.64,93,112,102.3l4.1,2.67-13.94,9.29ZM186.9,11.55,72.08,70.36,24.29,45.15ZM161.6,126.48,109.54,92.64l-7.89-5.13L203.57,12.58Z"/><path class="cls-2" d="M15.18,39.2l1.56,26.31V94.32H6.34V15.9h10l18.3,59.59.21-.21-2.5-31.41v-28h10.4V94.32H33.07L14.77,33.89l-.21.21Z"/><path class="cls-2" d="M65.83,15.9V73.41c0,10.09,3,12.17,7.28,12.17,7.18,0,7.8-4.58,7.9-11V15.9h10.4V71.54c0,10.3.1,23.82-18,23.82-16.54,0-18-11.23-18-25.38V15.9Z"/><path class="cls-2" d="M155.69,26.61a15,15,0,0,0-6.66-2c-14.56,0-14.66,21.22-14.66,31,0,10.4.83,30,15.08,30A12.91,12.91,0,0,0,155.69,84v9.15a14.7,14.7,0,0,1-8.32,2.18c-21.22,0-24-22.57-24-39,0-15.71,2-41.5,23.3-41.5a16.11,16.11,0,0,1,9,2.29Z"/><path class="cls-2" d="M163.69,15.9h12.48c7.59,0,19.45.42,19.45,20.07,0,7.38-2.18,18.62-10.82,20.18l14.46,38.17H188.44L174.3,55.94h-.21V94.32h-10.4Zm20.9,22.36c0-7.49-.94-13.73-8.84-13.52h-1.66v25.9C181.89,51.16,184.6,46.16,184.6,38.26Z"/><path class="cls-2" d="M234.93,15.9v9H217.35V49.6h15.7v9h-15.7V85.27h17.58v9H207V15.9Z"/><path class="cls-2" d="M262.39,15.9l16.85,78.42h-10.5L265.82,79h-15.6l-2.91,15.29H237.11L254.17,15.9Zm-.21,43.68-4-28.5H258l-6.24,39.83h12.48Z"/><path class="cls-2" d="M309.91,15.9v9H298.16V94.32h-10.4V24.95H275.49v-9Z"/><path class="cls-2" d="M326.24,94.32h-10.4V15.9h10.4Z"/><path class="cls-2" d="M343.71,15.9l8.94,59h.21l.52-4.89,4.16-26.42,4.78-27.67h9.88L356.82,94.32H348.5L333.31,15.9Z"/><path class="cls-2" d="M407.15,15.9v9H389.57V49.6h15.71v9H389.57V85.27h17.58v9h-28V15.9Z"/><path class="cls-2" d="M439.39,28c-2.71-2-5.3-3.33-8.84-3.33-5.72,0-9.26,4.68-9.26,10.09a12.69,12.69,0,0,0,2.91,8.53l7.9,8.63c7.07,7.18,11.13,12.38,11.13,23,0,11-6.86,20.49-18.41,20.49a18.2,18.2,0,0,1-11.44-3.74V81.11c3.12,2.29,6.24,4.06,10.3,4.06,6.45,0,9.15-5.1,9.15-10.92,0-15.6-21.95-18.72-21.95-39.31,0-11,5.82-20.07,17.58-20.07a21.08,21.08,0,0,1,11,2.6Z"/></svg>